<svg xmlns="http://www.w3.org/2000/svg" viewBox="0, 0, 1142.59, 117.45" font-family="SauceCodePro Nerd Font, Source Code Pro, Courier" font-size="14"><g fill="#e0e0e0"><rect x="0" y="0" width="1142.59" height="117.45" fill="#2c3e50"/><text x="0" y="14.55" font-weight="bold">bold            </text><text x="142.82" y="14.55">dim             </text><text x="285.65" y="14.55" font-style="italic">italic          </text><path d="M428.4697265625,16.5146875 L562.8916015625,16.5146875 Z" stroke="#e0e0e0"/><text x="428.47" y="14.55">underline       </text><text x="571.29" y="14.55">inverse         </text><path d="M714.1162109375,10.3546875 L848.5380859375,10.3546875 Z" stroke="#e0e0e0"/><text x="714.12" y="14.55">strikethrough   </text><text x="0" y="33.55" font-weight="bold" fill="#2c3e50">black           </text><text x="142.82" y="33.55" font-weight="bold" fill="#ce4435">red             </text><text x="285.65" y="33.55" font-weight="bold" fill="#2ecc71">green           </text><text x="428.47" y="33.55" font-weight="bold" fill="#e9bd0e">yellow          </text><text x="571.29" y="33.55" font-weight="bold" fill="#318fce">blue            </text><text x="714.12" y="33.55" font-weight="bold" fill="#9b59b6">magenta         </text><text x="856.94" y="33.55" font-weight="bold" fill="#1abc9c">cyan            </text><text x="999.76" y="33.55" font-weight="bold" fill="#e0e0e0">white           </text><text x="0" y="52.55" font-weight="bold" fill="#758283">gray            </text><text x="142.82" y="52.55" fill="#ff5342">redBright       </text><text x="285.65" y="52.55" fill="#ff5342"> </text><text x="285.65" y="52.55" fill="#39ff8d">greenBright     </text><text x="428.47" y="52.55" fill="#39ff8d"> </text><text x="428.47" y="52.55" fill="#fedb00">yellowBright    </text><text x="571.29" y="52.55" fill="#fedb00"> </text><text x="571.29" y="52.55" fill="#0098ff">blueBright      </text><text x="714.12" y="52.55" fill="#0098ff"> </text><text x="714.12" y="52.55" fill="#e500ff">magentaBright   </text><text x="856.94" y="52.55" fill="#e500ff"> </text><text x="856.94" y="52.55" fill="#00ffcc">cyanBright      </text><text x="999.76" y="52.55" fill="#00ffcc"> </text><text x="999.76" y="52.55" fill="#f9fdff">whiteBright     </text><text x="1142.59" y="52.55" fill="#f9fdff"> </text><rect x="0" y="57" width="134.42" height="19" fill="#2c3e50" opacity="1"/><text x="0" y="71.55" font-weight="bold" fill="#e0e0e0">bgBlack         </text><text x="142.82" y="71.55" fill="#f9fdff"> </text><rect x="142.82" y="57" width="134.42" height="19" fill="#ce4435" opacity="1"/><text x="142.82" y="71.55" font-weight="bold" fill="#2c3e50">bgRed           </text><text x="285.65" y="71.55" fill="#f9fdff"> </text><rect x="285.65" y="57" width="134.42" height="19" fill="#2ecc71" opacity="1"/><text x="285.65" y="71.55" font-weight="bold" fill="#2c3e50">bgGreen         </text><text x="428.47" y="71.55" fill="#f9fdff"> </text><rect x="428.47" y="57" width="134.42" height="19" fill="#e9bd0e" opacity="1"/><text x="428.47" y="71.55" font-weight="bold" fill="#2c3e50">bgYellow        </text><text x="571.29" y="71.55" fill="#f9fdff"> </text><rect x="571.29" y="57" width="134.42" height="19" fill="#318fce" opacity="1"/><text x="571.29" y="71.55" font-weight="bold" fill="#2c3e50">bgBlue          </text><text x="714.12" y="71.55" fill="#f9fdff"> </text><rect x="714.12" y="57" width="134.42" height="19" fill="#9b59b6" opacity="1"/><text x="714.12" y="71.55" font-weight="bold" fill="#2c3e50">bgMagenta       </text><text x="856.94" y="71.55" fill="#f9fdff"> </text><rect x="856.94" y="57" width="134.42" height="19" fill="#1abc9c" opacity="1"/><text x="856.94" y="71.55" font-weight="bold" fill="#2c3e50">bgCyan          </text><text x="999.76" y="71.55" fill="#f9fdff"> </text><rect x="999.76" y="57" width="134.42" height="19" fill="#e0e0e0" opacity="1"/><text x="999.76" y="71.55" font-weight="bold" fill="#2c3e50">bgWhite         </text><text x="1142.59" y="71.55" fill="#f9fdff"> </text><rect x="0" y="76" width="134.42" height="19" fill="#758283" opacity="1"/><text x="0" y="90.55" font-style="italic" fill="#e0e0e0">bgBlackBright   </text><text x="142.82" y="90.55" fill="#f9fdff"> </text><rect x="142.82" y="76" width="134.42" height="19" fill="#ff5342" opacity="1"/><text x="142.82" y="90.55" font-style="italic" fill="#2c3e50">bgRedBright     </text><text x="285.65" y="90.55" fill="#f9fdff"> </text><rect x="285.65" y="76" width="134.42" height="19" fill="#39ff8d" opacity="1"/><text x="285.65" y="90.55" font-style="italic" fill="#2c3e50">bgGreenBright   </text><text x="428.47" y="90.55" fill="#f9fdff"> </text><rect x="428.47" y="76" width="134.42" height="19" fill="#fedb00" opacity="1"/><text x="428.47" y="90.55" font-style="italic" fill="#2c3e50">bgYellowBright  </text><text x="571.29" y="90.55" fill="#f9fdff"> </text><rect x="571.29" y="76" width="134.42" height="19" fill="#0098ff" opacity="1"/><text x="571.29" y="90.55" font-style="italic" fill="#2c3e50">bgBlueBright    </text><text x="714.12" y="90.55" fill="#f9fdff"> </text><rect x="714.12" y="76" width="134.42" height="19" fill="#e500ff" opacity="1"/><text x="714.12" y="90.55" font-style="italic" fill="#2c3e50">bgMagentaBright </text><text x="856.94" y="90.55" fill="#f9fdff"> </text><rect x="856.94" y="76" width="134.42" height="19" fill="#00ffcc" opacity="1"/><text x="856.94" y="90.55" font-style="italic" fill="#2c3e50">bgCyanBright    </text><text x="999.76" y="90.55" fill="#f9fdff"> </text><rect x="999.76" y="76" width="134.42" height="19" fill="#f9fdff" opacity="1"/><text x="999.76" y="90.55" font-style="italic" fill="#2c3e50">bgWhiteBright   </text><text x="1142.59" y="90.55" fill="#f9fdff"> </text></g></svg>