<svg xmlns="http://www.w3.org/2000/svg" viewBox="0, 0, 268.84, 22.45" font-family="SauceCodePro Nerd Font, Source Code Pro, Courier" font-size="14"><g fill="#e0e0e0"><rect x="0" y="0" width="268.84" height="22.45" fill="#2c3e50"/><rect x="0" y="0" width="16.8" height="19" fill="#ce4435" opacity="1"/><text x="0" y="14.55">&#x1F308;</text><rect x="16.8" y="0" width="16.8" height="19" fill="#e9bd0e" opacity="1"/><text x="16.8" y="14.55">&#x1F984;</text><rect x="33.61" y="0" width="16.8" height="19" fill="#2ecc71" opacity="1"/><text x="33.61" y="14.55">&#x1F418;</text><rect x="50.41" y="0" width="16.8" height="19" fill="#1abc9c" opacity="1"/><text x="50.41" y="14.55">&#x1F344;</text><rect x="67.21" y="0" width="16.8" height="19" fill="#318fce" opacity="1"/><text x="67.21" y="14.55">&#x1F383;</text><rect x="84.01" y="0" width="16.8" height="19" fill="#9b59b6" opacity="1"/><text x="84.01" y="14.55">&#x1F426;</text><rect x="100.82" y="0" width="16.8" height="19" fill="#ce4435" opacity="1"/><text x="100.82" y="14.55">&#x1F5A4;</text><rect x="117.62" y="0" width="16.8" height="19" fill="#e9bd0e" opacity="1"/><text x="117.62" y="14.55">&#x1F633;</text><rect x="134.42" y="0" width="16.8" height="19" fill="#2ecc71" opacity="1"/><text x="134.42" y="14.55">&#x1F612;</text><rect x="151.22" y="0" width="16.8" height="19" fill="#1abc9c" opacity="1"/><text x="151.22" y="14.55">&#x1F62E;</text><rect x="168.03" y="0" width="16.8" height="19" fill="#318fce" opacity="1"/><text x="168.03" y="14.55">&#x1F610;</text><rect x="184.83" y="0" width="16.8" height="19" fill="#9b59b6" opacity="1"/><text x="184.83" y="14.55">&#x1F631;</text><rect x="201.63" y="0" width="16.8" height="19" fill="#ce4435" opacity="1"/><text x="201.63" y="14.55">&#x1F615;</text><rect x="218.44" y="0" width="16.8" height="19" fill="#e9bd0e" opacity="1"/><text x="218.44" y="14.55">&#x1F615;</text><rect x="235.24" y="0" width="16.8" height="19" fill="#2ecc71" opacity="1"/><text x="235.24" y="14.55">&#x1F611;</text><rect x="252.04" y="0" width="16.8" height="19" fill="#1abc9c" opacity="1"/><text x="252.04" y="14.55">&#x1F618;</text></g></svg>