<svg xmlns="http://www.w3.org/2000/svg" viewBox="0, 0, 159.63, 40.45" font-family="Courier" font-size="14"><g fill="#e0e0e0"><rect x="0" y="0" width="159.63" height="40.45" fill="#2c3e50"/><text x="0" y="14.55" fill="#2ecc71">&#x1F44B; Hello</text><text x="67.21" y="14.55">, </text><text x="84.01" y="14.55" fill="#0098ff">World</text><text x="134.42" y="14.55"> &#x1F30F;</text><text x="151.22" y="14.55" fill="#ff5342">!</text><rect x="0" y="19" width="16.8" height="19" fill="#ce4435" opacity="1"/><text x="0" y="33.55">&#x1F44B;</text><rect x="16.8" y="19" width="16.8" height="19" fill="#e9bd0e" opacity="1"/><text x="16.8" y="33.55">&#x1F984;</text><rect x="33.61" y="19" width="16.8" height="19" fill="#2ecc71" opacity="1"/><text x="33.61" y="33.55">&#x1F418;</text><path d="M58.8095703125,29.3546875 L75.6123046875,29.3546875 Z" stroke="#e0e0e0"/><text x="58.81" y="33.55" font-style="italic">13</text><text x="75.61" y="33.55" font-weight="bold">3</text><path d="M84.013671875,35.5146875 L92.4150390625,35.5146875 Z" stroke="#e0e0e0"/><text x="84.01" y="33.55">7</text><rect x="100.82" y="19" width="16.8" height="19" fill="#1abc9c" opacity="1"/><text x="100.82" y="33.55">&#x1F344;</text><rect x="117.62" y="19" width="16.8" height="19" fill="#318fce" opacity="1"/><text x="117.62" y="33.55">&#x1F383;</text><rect x="134.42" y="19" width="16.8" height="19" fill="#9b59b6" opacity="1"/><text x="134.42" y="33.55">&#x1F426;</text></g></svg>