<svg xmlns="http://www.w3.org/2000/svg" viewBox="0, 0, 1142.59, 117.45" font-family="SauceCodePro Nerd Font, Source Code Pro, Courier" font-size="14"><g fill="#4d4d4c"><rect x="0" y="0" width="1142.59" height="117.45" fill="#ffffff"/><text x="0" y="14.55" font-weight="bold">bold            </text><text x="142.82" y="14.55">dim             </text><text x="285.65" y="14.55" font-style="italic">italic          </text><path d="M428.4697265625,16.5146875 L562.8916015625,16.5146875 Z" stroke="#4d4d4c"/><text x="428.47" y="14.55">underline       </text><text x="571.29" y="14.55">inverse         </text><path d="M714.1162109375,10.3546875 L848.5380859375,10.3546875 Z" stroke="#4d4d4c"/><text x="714.12" y="14.55">strikethrough   </text><text x="0" y="33.55" font-weight="bold" fill="#ffffff">black           </text><text x="142.82" y="33.55" font-weight="bold" fill="#c82829">red             </text><text x="285.65" y="33.55" font-weight="bold" fill="#718c00">green           </text><text x="428.47" y="33.55" font-weight="bold" fill="#eab700">yellow          </text><text x="571.29" y="33.55" font-weight="bold" fill="#4271ae">blue            </text><text x="714.12" y="33.55" font-weight="bold" fill="#8859a8">magenta         </text><text x="856.94" y="33.55" font-weight="bold" fill="#3e999f">cyan            </text><text x="999.76" y="33.55" font-weight="bold" fill="#4d4d4c">white           </text><text x="0" y="52.55" font-weight="bold" fill="#8e908c">gray            </text><text x="142.82" y="52.55" fill="#c82829">redBright       </text><text x="285.65" y="52.55" fill="#c82829"> </text><text x="285.65" y="52.55" fill="#718c00">greenBright     </text><text x="428.47" y="52.55" fill="#718c00"> </text><text x="428.47" y="52.55" fill="#eab700">yellowBright    </text><text x="571.29" y="52.55" fill="#eab700"> </text><text x="571.29" y="52.55" fill="#4271ae">blueBright      </text><text x="714.12" y="52.55" fill="#4271ae"> </text><text x="714.12" y="52.55" fill="#8859a8">magentaBright   </text><text x="856.94" y="52.55" fill="#8859a8"> </text><text x="856.94" y="52.55" fill="#3e999f">cyanBright      </text><text x="999.76" y="52.55" fill="#3e999f"> </text><text x="999.76" y="52.55" fill="#1c1f21">whiteBright     </text><text x="1142.59" y="52.55" fill="#1c1f21"> </text><rect x="0" y="57" width="134.42" height="19" fill="#ffffff" opacity="1"/><text x="0" y="71.55" font-weight="bold" fill="#4d4d4c">bgBlack         </text><text x="142.82" y="71.55" fill="#1c1f21"> </text><rect x="142.82" y="57" width="134.42" height="19" fill="#c82829" opacity="1"/><text x="142.82" y="71.55" font-weight="bold" fill="#ffffff">bgRed           </text><text x="285.65" y="71.55" fill="#1c1f21"> </text><rect x="285.65" y="57" width="134.42" height="19" fill="#718c00" opacity="1"/><text x="285.65" y="71.55" font-weight="bold" fill="#ffffff">bgGreen         </text><text x="428.47" y="71.55" fill="#1c1f21"> </text><rect x="428.47" y="57" width="134.42" height="19" fill="#eab700" opacity="1"/><text x="428.47" y="71.55" font-weight="bold" fill="#ffffff">bgYellow        </text><text x="571.29" y="71.55" fill="#1c1f21"> </text><rect x="571.29" y="57" width="134.42" height="19" fill="#4271ae" opacity="1"/><text x="571.29" y="71.55" font-weight="bold" fill="#ffffff">bgBlue          </text><text x="714.12" y="71.55" fill="#1c1f21"> </text><rect x="714.12" y="57" width="134.42" height="19" fill="#8859a8" opacity="1"/><text x="714.12" y="71.55" font-weight="bold" fill="#ffffff">bgMagenta       </text><text x="856.94" y="71.55" fill="#1c1f21"> </text><rect x="856.94" y="57" width="134.42" height="19" fill="#3e999f" opacity="1"/><text x="856.94" y="71.55" font-weight="bold" fill="#ffffff">bgCyan          </text><text x="999.76" y="71.55" fill="#1c1f21"> </text><rect x="999.76" y="57" width="134.42" height="19" fill="#4d4d4c" opacity="1"/><text x="999.76" y="71.55" font-weight="bold" fill="#ffffff">bgWhite         </text><text x="1142.59" y="71.55" fill="#1c1f21"> </text><rect x="0" y="76" width="134.42" height="19" fill="#8e908c" opacity="1"/><text x="0" y="90.55" font-style="italic" fill="#4d4d4c">bgBlackBright   </text><text x="142.82" y="90.55" fill="#1c1f21"> </text><rect x="142.82" y="76" width="134.42" height="19" fill="#c82829" opacity="1"/><text x="142.82" y="90.55" font-style="italic" fill="#ffffff">bgRedBright     </text><text x="285.65" y="90.55" fill="#1c1f21"> </text><rect x="285.65" y="76" width="134.42" height="19" fill="#718c00" opacity="1"/><text x="285.65" y="90.55" font-style="italic" fill="#ffffff">bgGreenBright   </text><text x="428.47" y="90.55" fill="#1c1f21"> </text><rect x="428.47" y="76" width="134.42" height="19" fill="#eab700" opacity="1"/><text x="428.47" y="90.55" font-style="italic" fill="#ffffff">bgYellowBright  </text><text x="571.29" y="90.55" fill="#1c1f21"> </text><rect x="571.29" y="76" width="134.42" height="19" fill="#4271ae" opacity="1"/><text x="571.29" y="90.55" font-style="italic" fill="#ffffff">bgBlueBright    </text><text x="714.12" y="90.55" fill="#1c1f21"> </text><rect x="714.12" y="76" width="134.42" height="19" fill="#8859a8" opacity="1"/><text x="714.12" y="90.55" font-style="italic" fill="#ffffff">bgMagentaBright </text><text x="856.94" y="90.55" fill="#1c1f21"> </text><rect x="856.94" y="76" width="134.42" height="19" fill="#3e999f" opacity="1"/><text x="856.94" y="90.55" font-style="italic" fill="#ffffff">bgCyanBright    </text><text x="999.76" y="90.55" fill="#1c1f21"> </text><rect x="999.76" y="76" width="134.42" height="19" fill="#1c1f21" opacity="1"/><text x="999.76" y="90.55" font-style="italic" fill="#ffffff">bgWhiteBright   </text><text x="1142.59" y="90.55" fill="#1c1f21"> </text></g></svg>